<?xml version="1.0" encoding="UTF-8"?>
<svg version="1.1" xmlns="http://www.w3.org/2000/svg" width="512" height="512">
<path d="M0 0 C0.79375031 0.00215515 1.58750061 0.0043103 2.40530396 0.00653076 C14.2724814 0.05820316 25.73934986 0.46562884 37.3125 3.3125 C38.13105469 3.50585938 38.94960938 3.69921875 39.79296875 3.8984375 C82.107449 14.14499326 120.35430714 41.00226265 143.42626953 78.10351562 C145.84234148 82.11023213 148.09844897 86.1911063 150.3125 90.3125 C150.84617187 91.29734375 151.37984375 92.2821875 151.9296875 93.296875 C171.29708299 130.42607878 174.19662842 172.4525106 161.76171875 212.1003418 C147.79267898 254.960737 125.52755475 294.88566531 102.3125 333.3125 C101.65878418 334.39821289 101.00506836 335.48392578 100.33154297 336.60253906 C91.16110533 351.80056945 81.56080617 366.65970051 71.63772583 381.37141418 C69.11147302 385.11812137 66.6048463 388.87726166 64.109375 392.64453125 C44.26345326 422.60225297 23.40259029 451.96185417 1.3125 480.3125 C-3.23040034 478.77325847 -5.43810741 475.0347212 -8.125 471.3125 C-8.64650635 470.60335449 -9.1680127 469.89420898 -9.70532227 469.16357422 C-11.37539646 466.88653966 -13.03258707 464.60057179 -14.6875 462.3125 C-15.22117188 461.57805664 -15.75484375 460.84361328 -16.3046875 460.08691406 C-19.56314573 455.60256027 -22.80342659 451.10540486 -26.03759766 446.60351562 C-27.68970402 444.30943955 -29.34941955 442.02107382 -31.01171875 439.734375 C-31.56480713 438.97237793 -32.11789551 438.21038086 -32.68774414 437.42529297 C-33.7102266 436.01701735 -34.73397153 434.60965663 -35.75952148 433.20361328 C-46.07056304 418.97852849 -55.76069699 404.30602901 -65.5 389.6875 C-66.42684097 388.2965361 -66.42684097 388.2965361 -67.37240601 386.87747192 C-181.6510796 215.27178601 -181.6510796 215.27178601 -165.6875 134.3125 C-156.88181635 90.91872563 -130.23995554 52.24546411 -93.48046875 27.74780273 C-77.26212403 17.22464142 -60.21319259 9.26994356 -41.4375 4.5 C-40.67091064 4.30510986 -39.90432129 4.11021973 -39.11450195 3.90942383 C-26.11069483 0.80127694 -13.30627138 -0.06513036 0 0 Z " fill="#E36253" transform="translate(255.6875,15.6875)"/>
<path d="M0 0 C19.45264739 16.30372294 31.59445061 36.28741761 36.9519043 61.12402344 C37.21668579 62.31064575 37.21668579 62.31064575 37.48681641 63.52124023 C41.83982835 87.88211183 35.34935969 115.06797223 21.7331543 135.44433594 C4.84954572 158.73833594 -17.49191518 173.33415248 -45.90209961 178.65893555 C-72.58469281 182.60355297 -98.62253171 176.88006799 -120.59106445 161.32324219 C-142.51658853 144.48694945 -157.25872421 121.77742513 -161.66137695 94.29589844 C-164.52609822 68.0295014 -160.00779138 41.98219673 -143.7355957 20.56152344 C-142.52062999 19.07067031 -141.2908448 17.59179706 -140.0480957 16.12402344 C-139.38036133 15.32222656 -138.71262695 14.52042969 -138.0246582 13.69433594 C-103.62622212 -26.16811165 -41.67402077 -33.53518556 0 0 Z " fill="#FEFEFE" transform="translate(318.048095703125,105.8759765625)"/>
<path d="M0 0 C0.66 0.33 1.32 0.66 2 1 C-5.59 8.59 -13.18 16.18 -21 24 C-21.66 23.67 -22.32 23.34 -23 23 C-15.7215545 14.79730745 -8.41380126 7.04011942 0 0 Z " fill="#8D3C33" transform="translate(150,52)"/>
</svg>
