<?xml version="1.0" encoding="UTF-8"?>
<svg version="1.1" xmlns="http://www.w3.org/2000/svg" width="512" height="512">
<path d="M0 0 C0.88450836 0.00054382 1.76901672 0.00108765 2.68032837 0.00164795 C16.67598777 0.04116987 30.0125135 0.89145879 43.625 4.375 C44.52686035 4.59994141 45.4287207 4.82488281 46.35791016 5.05664062 C70.06482627 11.08825832 92.80925505 20.87360605 112.625 35.375 C113.64207031 36.10847656 114.65914063 36.84195313 115.70703125 37.59765625 C121.96845082 42.20847647 127.80132588 47.21146042 133.5 52.5 C134.40939331 53.34232178 134.40939331 53.34232178 135.3371582 54.20166016 C164.62300712 81.86074062 183.48926066 119.99144381 190.625 159.375 C190.80232666 160.29466553 190.97965332 161.21433105 191.16235352 162.16186523 C192.82533002 171.60612122 192.98164305 180.88046828 192.9375 190.4375 C192.93476578 191.66447098 192.93476578 191.66447098 192.93197632 192.91622925 C192.88553005 205.29801817 192.34754836 217.25483638 189.625 229.375 C189.45871094 230.15407715 189.29242188 230.9331543 189.12109375 231.73583984 C180.45884205 271.68646549 162.32300496 310.81891803 140.625 345.375 C139.67445947 346.90884196 138.72393966 348.44269676 137.7734375 349.9765625 C127.27853401 366.81797685 116.22203676 383.2737411 104.625 399.375 C103.79331299 400.52983887 103.79331299 400.52983887 102.94482422 401.70800781 C95.28448922 412.30664234 87.3434004 422.60479208 79.01464844 432.68554688 C77.11058405 435.00039676 75.24108867 437.34198144 73.375 439.6875 C62.72795125 453.01849229 51.79149113 466.05949025 40.203125 478.58203125 C37.8421481 481.13975623 35.50931152 483.71925368 33.1875 486.3125 C31.66781733 488.0010363 30.14688681 489.68845003 28.625 491.375 C28.15416992 491.89771484 27.68333984 492.42042969 27.19824219 492.95898438 C9.93842645 512.07242663 9.93842645 512.07242663 4.015625 512.61328125 C2.97921875 512.63777344 1.9428125 512.66226563 0.875 512.6875 C-0.15109375 512.72488281 -1.1771875 512.76226563 -2.234375 512.80078125 C-8.68895521 511.92572 -12.95134934 507.10039492 -17.3125 502.625 C-17.84117676 502.08915283 -18.36985352 501.55330566 -18.91455078 501.0012207 C-22.18353043 497.66445116 -25.31802926 494.24717146 -28.34375 490.6875 C-31.23018614 487.40140347 -34.24858929 484.24338789 -37.25 481.0625 C-42.16425506 475.83920882 -46.82011661 470.52611328 -51.296875 464.921875 C-53.43218453 462.3049167 -55.66030363 459.80657221 -57.9375 457.3125 C-61.49264182 453.4024559 -64.83717026 449.38582317 -68.10546875 445.234375 C-69.79803628 443.10191471 -71.50649742 440.99078894 -73.23828125 438.890625 C-81.95896812 428.30083142 -90.23431 417.41538488 -98.375 406.375 C-99.20233643 405.25786621 -99.20233643 405.25786621 -100.04638672 404.11816406 C-109.61202547 391.17590427 -118.57126944 377.84466183 -127.375 364.375 C-127.92575195 363.53291992 -128.47650391 362.69083984 -129.04394531 361.82324219 C-148.2675653 332.28274526 -165.58444159 300.65946932 -177.375 267.375 C-177.69259277 266.49875977 -178.01018555 265.62251953 -178.33740234 264.71972656 C-181.86305539 254.94446166 -184.84912731 245.12796682 -187.1875 235 C-187.3824707 234.15751709 -187.57744141 233.31503418 -187.77832031 232.44702148 C-190.76885996 218.76675302 -191.78557382 205.32712443 -191.75 191.375 C-191.74945618 190.56651611 -191.74891235 189.75803223 -191.74835205 188.92504883 C-191.70672419 175.40565187 -190.67907213 162.5317557 -187.375 149.375 C-187.15005859 148.46878906 -186.92511719 147.56257812 -186.69335938 146.62890625 C-180.66012037 122.92808306 -170.87286557 100.18592352 -156.375 80.375 C-155.64152344 79.35792969 -154.90804687 78.34085937 -154.15234375 77.29296875 C-149.54152353 71.03154918 -144.53853958 65.19867412 -139.25 59.5 C-138.40767822 58.59060669 -138.40767822 58.59060669 -137.54833984 57.6628418 C-109.88371352 28.37112083 -71.7612925 9.52273092 -32.375 2.375 C-31.47056152 2.19839844 -30.56612305 2.02179687 -29.63427734 1.83984375 C-19.76251048 0.08681079 -9.99408911 -0.02310934 0 0 Z " fill="#FEC107" transform="translate(255.375,-0.375)"/>
<path d="M0 0 C17.23798831 14.64770549 27.94299588 31.58991049 33.9375 53.49609375 C34.16566406 54.28113281 34.39382813 55.06617188 34.62890625 55.875 C40.44228324 79.25046691 33.85973203 106.11991537 21.9375 126.49609375 C7.15726584 149.2217717 -14.41463595 164.29451424 -40.9375 169.98828125 C-69.18132328 174.57790253 -93.83905574 169.20237104 -117.4921875 152.8125 C-137.68072749 137.83274702 -151.01917117 116.37811729 -155.0625 91.49609375 C-158.86464889 63.4473453 -152.75102823 38.7837505 -135.75 15.87109375 C-121.34092302 -1.84073795 -104.0153939 -12.49662003 -82.0625 -18.50390625 C-81.27746094 -18.73207031 -80.49242187 -18.96023437 -79.68359375 -19.1953125 C-52.87317175 -25.86294788 -21.25141078 -16.75809387 0 0 Z " fill="#FAF9F9" transform="translate(316.0625,116.50390625)"/>
</svg>
