<?xml version="1.0" encoding="UTF-8"?>
<svg version="1.1" xmlns="http://www.w3.org/2000/svg" width="512" height="512">
<path d="M0 0 C0.9075 0.76570313 1.815 1.53140625 2.75 2.3203125 C7.63643357 6.52990899 11.92169572 11.0090107 16 16 C16.40476562 16.48710449 16.80953125 16.97420898 17.2265625 17.47607422 C46.27153795 52.56147037 60.4259295 97.71938243 60.31567383 142.97729492 C60.3125241 145.66692102 60.33603665 148.35543138 60.36132812 151.04492188 C60.41911135 166.81749318 58.51139921 182.23256412 54.75 197.5625 C54.54093018 198.42125732 54.33186035 199.28001465 54.11645508 200.16479492 C50.29338283 215.24830132 44.40264879 229.34312961 37 243 C36.43539063 244.04542969 35.87078125 245.09085937 35.2890625 246.16796875 C31.51267194 252.87859704 27.16961669 259.11330581 22.6484375 265.33203125 C19.99232299 268.99028742 17.42567058 272.70522701 14.875 276.4375 C10.2826254 283.14789508 5.64822682 289.8281776 1 296.5 C-3.51858781 302.98737852 -8.02976376 309.47919668 -12.5 316 C-17.66198464 323.5298675 -22.87995897 331.02038802 -28.09765625 338.51171875 C-31.91571524 343.9961033 -35.72152283 349.48827642 -39.5 355 C-44.66198464 362.5298675 -49.87995897 370.02038802 -55.09765625 377.51171875 C-58.91571524 382.9961033 -62.72152283 388.48827642 -66.5 394 C-71.66198464 401.5298675 -76.87995897 409.02038802 -82.09765625 416.51171875 C-85.91571596 421.99610433 -89.72141107 427.48835229 -93.5 433 C-98.14128942 439.76764759 -102.81652368 446.51148626 -107.5 453.25 C-108.19544922 454.25160156 -108.89089844 455.25320313 -109.60742188 456.28515625 C-110.26291016 457.22746094 -110.91839844 458.16976563 -111.59375 459.140625 C-112.17833984 459.98141602 -112.76292969 460.82220703 -113.36523438 461.68847656 C-114.87401553 463.82186067 -116.42062339 465.91853021 -118 468 C-121.74889924 466.52488965 -123.13736618 464.69370132 -125.25 461.3125 C-129.2986662 455.02382408 -133.52763385 448.88015524 -137.8125 442.75 C-142.39508168 436.18026719 -146.97224149 429.6076568 -151.5 423 C-155.9700863 416.47909384 -160.48150803 409.98744378 -165 403.5 C-169.94893338 396.39454817 -174.88128005 389.27868322 -179.77734375 382.13671875 C-183.82504121 376.23933165 -187.91193716 370.36945335 -192 364.5 C-196.94893338 357.39454817 -201.88128005 350.27868322 -206.77734375 343.13671875 C-210.82504121 337.23933165 -214.91193716 331.36945335 -219 325.5 C-223.94893338 318.39454817 -228.88128005 311.27868322 -233.77734375 304.13671875 C-237.82504244 298.23932986 -241.91217087 292.3696179 -246 286.5 C-248.66746411 282.66722093 -251.33412661 278.83388565 -254 275 C-254.81380127 273.82993408 -254.81380127 273.82993408 -255.64404297 272.63623047 C-258.7891007 268.10852838 -261.91052038 263.56581307 -265 259 C-265.39767578 258.41492676 -265.79535156 257.82985352 -266.20507812 257.22705078 C-280.53896417 236.01549701 -289.44993199 212.93585059 -295 188 C-295.27118652 186.81470703 -295.27118652 186.81470703 -295.54785156 185.60546875 C-301.46482874 158.36149429 -300.13650561 126.05853388 -294 99 C-293.78569336 98.04834961 -293.57138672 97.09669922 -293.35058594 96.11621094 C-285.11974223 60.85657045 -268.59799475 30.4485174 -243 5 C-242.41081787 4.38866211 -241.82163574 3.77732422 -241.21459961 3.14746094 C-218.70901611 -19.97133104 -188.05787661 -33.75830803 -157 -41 C-156.00371582 -41.24556641 -156.00371582 -41.24556641 -154.98730469 -41.49609375 C-100.47235362 -54.41104055 -41.54841902 -35.76166369 0 0 Z " fill="#107FDE" transform="translate(375,44)"/>
<path d="M0 0 C29.65229228 -0.97200712 54.23220183 7.75893201 76.58251953 27.453125 C91.89526357 42.04583405 101.53027965 60.47502772 105.88720703 81.078125 C106.07798828 81.97917969 106.26876953 82.88023437 106.46533203 83.80859375 C109.93783606 110.72049996 104.42898539 138.31532781 87.88720703 160.078125 C84.46268611 164.32186015 80.738314 168.22165437 76.88720703 172.078125 C76.02353516 172.95339844 75.15986328 173.82867187 74.27001953 174.73046875 C54.48817499 193.77856534 29.52122702 200.63087328 2.62939453 200.4296875 C-24.03726924 199.81744267 -46.59016686 188.84714454 -65.11279297 170.078125 C-66.00869141 169.19253906 -66.90458984 168.30695313 -67.82763672 167.39453125 C-86.56243492 147.96692079 -93.80721181 122.41985242 -93.58740234 95.88842773 C-93.18872417 82.18386566 -90.1557089 69.41205311 -84.11279297 57.078125 C-83.68353516 56.1809375 -83.25427734 55.28375 -82.81201172 54.359375 C-70.84617753 30.89959868 -49.87594254 12.95975735 -25.05810547 4.36669922 C-16.77960441 1.74342906 -8.65631776 0.3200857 0 0 Z " fill="#FEFEFE" transform="translate(249.11279296875,88.921875)"/>
<path d="M0 0 C0.66 0.33 1.32 0.66 2 1 C-3.61 6.61 -9.22 12.22 -15 18 C-15.66 17.67 -16.32 17.34 -17 17 C-13.24172913 12.39611818 -9.37336029 8.41183078 -4.83203125 4.578125 C-3.13809049 3.11895215 -1.55835516 1.60177682 0 0 Z " fill="#094E88" transform="translate(140,41)"/>
</svg>
