<?xml version="1.0" encoding="UTF-8"?>
<svg version="1.1" xmlns="http://www.w3.org/2000/svg" width="512" height="512">
<path d="M0 0 C4.669649 4.01792503 9.11188583 8.25847215 13.41162109 12.66845703 C14.03037109 13.24208984 14.64912109 13.81572266 15.28662109 14.40673828 C44.29652757 41.91434603 61.79168467 84.88305348 63.5378418 124.53466797 C64.04448656 144.17640092 61.82454889 161.16390741 55.41162109 179.66845703 C55.00427734 180.88275391 54.59693359 182.09705078 54.17724609 183.34814453 C49.6191536 196.24486506 43.50787571 208.44205757 37.41162109 220.66845703 C36.98333008 221.52906738 36.55503906 222.38967773 36.11376953 223.27636719 C18.80602418 257.77312033 -3.92271277 289.55595976 -26.92871094 320.43847656 C-28.5170238 322.57258214 -30.09825632 324.7117623 -31.67822266 326.85205078 C-37.72221346 335.01000801 -43.99316294 342.94428041 -50.43212891 350.79345703 C-53.39746629 354.41535329 -56.2804488 358.09622672 -59.15087891 361.79345703 C-63.36152768 367.20122847 -67.74870963 372.43034977 -72.23339844 377.61230469 C-75.38571704 381.25578652 -78.47986725 384.93545103 -81.52587891 388.66845703 C-82.60675781 389.98910156 -82.60675781 389.98910156 -83.70947266 391.33642578 C-84.80598659 392.69737967 -85.88885842 394.06996733 -86.93603516 395.46923828 C-91.61052688 401.60153759 -98.18799304 405.69863515 -105.58837891 407.66845703 C-116.50674334 408.65065299 -125.3590061 407.86374892 -134.65087891 401.60595703 C-138.1479425 398.39060134 -141.01782486 394.58610453 -143.97509766 390.88330078 C-146.86819129 387.28348013 -149.91740457 383.82634845 -152.96337891 380.35595703 C-157.59607562 375.0545546 -162.04049062 369.65077699 -166.34912109 364.08374023 C-170.04246238 359.32306332 -173.86381496 354.67834229 -177.71337891 350.04345703 C-182.75927999 343.94866231 -187.65254511 337.78186321 -192.32470703 331.39306641 C-193.80678962 329.37037873 -195.29897965 327.35532686 -196.79150391 325.34033203 C-199.80897913 321.26315328 -202.81447824 317.17734168 -205.81396484 313.08691406 C-206.95098585 311.53719887 -208.08952022 309.98859221 -209.22998047 308.44140625 C-229.31209933 281.17649626 -247.88178565 252.6814013 -263.58837891 222.66845703 C-264.05727539 221.78512695 -264.52617187 220.90179688 -265.00927734 219.99169922 C-287.54308997 177.39672836 -298.15526009 133.66765115 -284.12402344 86.42797852 C-274.83534722 56.72931915 -259.92870485 31.45027482 -237.58837891 9.66845703 C-236.72792969 8.74033203 -236.72792969 8.74033203 -235.85009766 7.79345703 C-214.84466924 -14.3591605 -184.99461038 -29.22119953 -155.58837891 -36.33154297 C-154.71890625 -36.54182129 -153.84943359 -36.75209961 -152.95361328 -36.96875 C-99.41036289 -49.22856241 -41.93974729 -35.15822037 0 0 Z " fill="#00CAFC" transform="translate(369.58837890625,72.33154296875)"/>
<path d="M0 0 C20.91575153 16.0787755 37.26036057 38.90051582 41.1328125 65.484375 C43.48723789 93.0980061 39.47185425 120.95841283 21.3125 143.0234375 C20.69761719 143.74015625 20.08273437 144.456875 19.44921875 145.1953125 C18.44955078 146.39414062 18.44955078 146.39414062 17.4296875 147.6171875 C0.75745301 166.96298752 -21.95233876 179.6229865 -47.55078125 182.1953125 C-74.60701101 184.15418146 -101.17653418 177.59765986 -122.23828125 159.9453125 C-142.57821486 142.27869746 -156.13896586 119.33557084 -158.55078125 92.1953125 C-159.8998552 64.97943839 -154.65562725 38.66460556 -135.99536133 17.88085938 C-133.56307962 15.26887105 -131.06029219 12.7332196 -128.55078125 10.1953125 C-127.95910156 9.53144531 -127.36742187 8.86757812 -126.7578125 8.18359375 C-114.41138204 -5.43239254 -95.32013483 -13.65752678 -77.55078125 -16.8046875 C-76.6179834 -16.97524658 -75.68518555 -17.14580566 -74.72412109 -17.3215332 C-48.42198574 -21.32614359 -21.68678322 -15.34348215 0 0 Z " fill="#FEFEFF" transform="translate(314.55078125,121.8046875)"/>
</svg>
