<?xml version="1.0" encoding="UTF-8"?>
<svg version="1.1" xmlns="http://www.w3.org/2000/svg" width="512" height="512">
<path d="M0 0 C0.66870117 0.20963379 1.33740234 0.41926758 2.02636719 0.63525391 C19.20690688 6.17860241 35.66431571 15.07946488 50 26 C51.30324219 26.97066406 51.30324219 26.97066406 52.6328125 27.9609375 C87.87681111 55.41969463 110.27606307 95.02181789 117 139 C117.09643799 139.6297876 117.19287598 140.2595752 117.29223633 140.90844727 C118.30684269 148.54735804 118.20007037 156.24604734 118.1875 163.9375 C118.18656342 164.6746524 118.18562683 165.41180481 118.18466187 166.17129517 C118.02141898 225.40433698 92.36480841 269.97692229 51.28636169 310.86224365 C48.76895702 313.36343136 46.24697089 315.85996216 43.72375488 318.35528564 C39.65833368 322.37693533 35.60011155 326.4058199 31.54506874 330.43793106 C30.1479272 331.82503411 28.74713756 333.20845964 27.34623718 334.59176636 C22.87455363 339.02955749 18.5439162 343.51653959 14.45445251 348.31059265 C13.06154185 349.92851657 11.62394775 351.48479817 10.1484375 353.02734375 C-7.06238285 371.03302901 -21.49852405 391.92458649 -33 414 C-33.33451172 414.64163086 -33.66902344 415.28326172 -34.01367188 415.94433594 C-41.55112677 430.64457693 -46.8582159 446.3310895 -52 462 C-52.66 462 -53.32 462 -54 462 C-54.36013184 460.87863647 -54.36013184 460.87863647 -54.72753906 459.73461914 C-68.22252351 418.14201066 -88.84957303 382.15000588 -118.89868164 350.3059082 C-120.7851613 348.30320479 -122.64706088 346.2861437 -124.49511719 344.24731445 C-134.86224666 332.81036073 -145.91058777 322.04948815 -156.89038086 311.20556641 C-175.55901099 292.75245451 -175.55901099 292.75245451 -183 283 C-184.30827853 281.41317677 -185.62032291 279.82944459 -186.9375 278.25 C-212.826962 245.61795446 -224.2153702 206.36117835 -224.25 165.0625 C-224.25067474 164.33456238 -224.25134949 163.60662476 -224.25204468 162.85662842 C-224.23468171 151.01897827 -223.5815176 139.58187636 -221 128 C-220.73461426 126.79947998 -220.73461426 126.79947998 -220.46386719 125.57470703 C-210.60533784 82.38617563 -183.71783148 42.49031317 -146.02490234 18.75634766 C-141.45025662 15.97369176 -136.76399996 13.44146421 -132 11 C-131.32356445 10.64953613 -130.64712891 10.29907227 -129.95019531 9.93798828 C-90.06453501 -10.49469882 -42.59392122 -13.47675548 0 0 Z " fill="#000000" transform="translate(309,50)"/>
<path d="M0 0 C21.28524504 17.83358369 36.36038968 39.41137184 40.1875 67.5 C40.46736298 71.380325 40.52224375 75.23552169 40.5 79.125 C40.49436035 80.17042969 40.4887207 81.21585937 40.48291016 82.29296875 C40.05216097 110.09974781 29.50824889 134.54452461 9.62011719 154.03613281 C-10.22655282 172.69423119 -35.32525205 182.10022133 -62.50634766 181.921875 C-90.63449133 181.05340499 -115.50756325 168.71528053 -134.75390625 148.47265625 C-154.83906014 126.38174877 -160.91123107 99.44811239 -159.96044922 70.23876953 C-158.52032117 43.57976544 -142.64208916 20.69911924 -123.66357422 3.11279297 C-90.19337848 -26.0489207 -35.00071898 -26.77869038 0 0 Z " fill="#D3D55B" transform="translate(315.8125,130.5)"/>
</svg>
