<?xml version="1.0" encoding="UTF-8"?>
<svg version="1.1" xmlns="http://www.w3.org/2000/svg" width="512" height="512">
<path d="M0 0 C0.8962207 0.21430664 1.79244141 0.42861328 2.71582031 0.64941406 C51.76461673 12.70541519 95.45988251 43.93014797 122.18847656 86.91113281 C124.95272276 91.5228517 127.51913163 96.23066637 130 101 C130.34804688 101.66870117 130.69609375 102.33740234 131.0546875 103.02636719 C139.7502428 120.00067956 145.70719561 138.21742082 149 157 C149.17660156 157.97936523 149.35320312 158.95873047 149.53515625 159.96777344 C151.18800705 170.11214524 151.3988885 180.1163374 151.375 190.375 C151.37418427 191.69559921 151.37418427 191.69559921 151.37335205 193.0428772 C151.33281521 207.3499493 150.42412592 221.05503369 147 235 C146.78037598 235.90685547 146.56075195 236.81371094 146.33447266 237.74804688 C139.89341882 263.58519703 128.51964046 287.52404968 112.59326172 308.86230469 C110.94306542 311.0763897 109.31543573 313.30572561 107.69140625 315.5390625 C100.81869766 324.96384541 93.77356665 334.2510705 86.68286133 343.51245117 C82.61491567 348.83922832 78.646308 354.2165905 74.78710938 359.69580078 C71.20323184 364.76506227 67.48382538 369.72798119 63.75 374.6875 C58.78007424 381.28904287 53.83444345 387.90660094 48.9375 394.5625 C48.07535889 395.73389526 48.07535889 395.73389526 47.19580078 396.92895508 C44.31795219 400.84164925 41.44467114 404.75765875 38.57421875 408.67578125 C32.38074062 417.11879809 26.11619438 425.49873554 19.75 433.8125 C14.98591268 440.03467144 10.29956612 446.28910816 5.78710938 452.69580078 C1.58860841 458.63442426 -2.79701373 464.43025082 -7.171875 470.23950195 C-12.24478841 476.97968729 -17.26383215 483.75782279 -22.25683594 490.55737305 C-23.31975526 492.00440876 -24.38525706 493.44955186 -25.45361328 494.89257812 C-26.50335085 496.3231646 -27.53776088 497.7651001 -28.55810547 499.21679688 C-33.5186632 506.15556873 -33.5186632 506.15556873 -38 508 C-40.90234375 508.43359375 -40.90234375 508.43359375 -43.9375 508.4375 C-44.93652344 508.45683594 -45.93554688 508.47617187 -46.96484375 508.49609375 C-53.6360824 507.40568537 -57.0369073 503.04985273 -60.79272461 497.85961914 C-61.63782593 496.66067017 -61.63782593 496.66067017 -62.5 495.4375 C-63.74065205 493.71597763 -64.9815441 491.9946282 -66.22265625 490.2734375 C-66.85059082 489.39526367 -67.47852539 488.51708984 -68.12548828 487.61230469 C-71.0267903 483.56907317 -73.98147327 479.56580238 -76.9375 475.5625 C-77.51177734 474.78253662 -78.08605469 474.00257324 -78.67773438 473.19897461 C-82.92029493 467.44214084 -87.20305814 461.71631879 -91.5 456 C-99.89200455 444.83592685 -108.17188654 433.59065559 -116.42578125 422.32421875 C-122.61925938 413.88120191 -128.88380562 405.50126446 -135.25 397.1875 C-140.01408732 390.96532856 -144.70043388 384.71089184 -149.21289062 378.30419922 C-152.79676816 373.23493773 -156.51617462 368.27201881 -160.25 363.3125 C-166.97711216 354.37688979 -173.63068252 345.38997517 -180.25292969 336.37646484 C-182.63251038 333.13962324 -185.01672396 329.90620871 -187.40136719 326.6730957 C-188.58532985 325.06691345 -189.76828481 323.45998786 -190.95019531 321.85229492 C-193.61935043 318.2219576 -196.29616388 314.59873738 -199.0078125 311 C-222.37219951 279.87687315 -238.84419511 241.70409391 -239.23828125 202.3125 C-239.25297203 201.0948571 -239.25297203 201.0948571 -239.26795959 199.85261536 C-239.43989479 181.89977817 -239.29281303 164.54368795 -235 147 C-234.78569336 146.1037793 -234.57138672 145.20755859 -234.35058594 144.28417969 C-223.44366685 99.910324 -196.97601101 59.91014949 -160 33 C-159.43651855 32.58685547 -158.87303711 32.17371094 -158.29248047 31.74804688 C-136.02297189 15.62867789 -110.73879484 4.96748041 -84 -1 C-82.94329102 -1.2477417 -82.94329102 -1.2477417 -81.86523438 -1.50048828 C-56.19165314 -7.27405876 -25.42258433 -6.22072175 0 0 Z " fill="#57DEA4" transform="translate(300,4)"/>
<path d="M0 0 C16.69016956 13.11713729 27.08549017 31.44716483 29.625 52.52734375 C30.59361641 74.21984618 25.62807958 94.37974394 10.6796875 110.84375 C-3.88251965 126.26268646 -22.25293907 135.19343153 -43.70019531 135.8815918 C-62.9629717 136.06539692 -81.20064251 129.77143252 -95.375 116.52734375 C-96.21417969 115.77839844 -97.05335938 115.02945313 -97.91796875 114.2578125 C-111.10597832 101.90777025 -119.91133716 84.51965331 -120.55859375 66.328125 C-121.05255973 43.00799086 -114.36978517 23.81489286 -98.375 6.52734375 C-71.58022329 -19.38685344 -29.95497212 -22.45764108 0 0 Z " fill="#D9FEED" transform="translate(301.375,134.47265625)"/>
</svg>
